<?xml version="1.0" standalone="no"?>
<!DOCTYPE svg PUBLIC "-//W3C//DTD SVG 20010904//EN"
 "http://www.w3.org/TR/2001/REC-SVG-20010904/DTD/svg10.dtd">
<svg version="1.0" xmlns="http://www.w3.org/2000/svg"
 width="160.000000pt" height="160.000000pt" viewBox="0 0 160.000000 160.000000"
 preserveAspectRatio="xMidYMid meet">
<metadata>
Created by potrace 1.11, written by Peter Selinger 2001-2013
</metadata>
<g transform="translate(0.000000,160.000000) scale(0.100000,-0.100000)"
fill="#000000" stroke="none">
<path d="M682 1494 c-41 -7 -81 -19 -90 -27 -9 -8 -28 -18 -41 -22 -13 -4 -49
-32 -78 -63 -74 -75 -169 -273 -188 -392 -3 -19 -8 -42 -10 -50 -27 -94 -36
-319 -23 -538 6 -100 6 -103 -19 -130 -41 -44 -84 -141 -100 -224 -1 -10 -4
-23 -5 -30 -2 -11 132 -13 688 -15 l692 -2 -9 42 c-18 82 -79 214 -108 232 -6
3 -8 36 -6 78 11 177 17 252 20 255 1 2 -2 20 -7 40 -5 20 -11 57 -13 82 -18
231 -60 383 -147 527 -63 107 -200 219 -289 239 -53 11 -198 11 -267 -2z"/>
</g>
</svg>
